{"title":"13 Frightened Girls(1963)MPEG-4[DaScubaDude]","uid":14267942,"size":885068056,"categoryP":"video","categoryS":"movies","magnet":"?xt=urn:btih:d9d9055190fdebdfc91d9900651b94a1893f8dec&amp;dn=13+Frightened+Girls%281963%29MPEG-4%5BDaScubaDude%5D&amp;tr=udp%3A%2F%2Ftracker.leechers-paradise.org%3A6969&amp;tr=udp%3A%2F%2Fzer0day.ch%3A1337&amp;tr=udp%3A%2F%2Fopen.demonii.com%3A1337&amp;tr=udp%3A%2F%2Ftracker.coppersurfer.tk%3A6969&amp;tr=udp%3A%2F%2Fexodus.desync.com%3A6969","seeders":1,"leechers":0,"uploader":"dascuba","files":1,"time":1460271696,"description":"13 Frightened Girls! (1963)\r\nApproved | 1h 29min | Adventure, Comedy, Thriller | July 1963 (USA)\r\nWhile attending a school for diplomats' daughters, the teen-aged daughter of the American ambassador uses her access to various embassies to engage in espionage.\r\nDirector: William Castle\r\nWriters: Otis L. Guernsey Jr. (story), Robert Dillon\r\nStars: Murray Hamilton, Joyce Taylor, Hugh Marlowe \r\n\r\nGeneral\r\nComplete name                            : 13 Frightened GirlsWILLIAM_CASTLE_FILM_COLLECTION_Title1.mp4\r\nFormat                                   : MPEG-4\r\nFormat profile                           : Base Media\r\nCodec ID                                 : isom\r\nFile size                                : 844 MiB\r\nDuration                                 : 1h 27mn\r\nOverall bit rate                         : 1 349 Kbps\r\nMovie name                               : WILLIAM_CASTLE_FILM_COLLECTION\r\nGenre                                    : Horror\r\nWriting application                      : Lavf54.6.100\r\n\r\nVideo\r\nID                                       : 1\r\nFormat                                   : AVC\r\nFormat/Info                              : Advanced Video Codec\r\nFormat profile                           :   \r\nFormat settings, CABAC                   : No\r\nFormat settings, ReFrames                : 6 frames\r\nCodec ID                                 : avc1\r\nCodec ID/Info                            : Advanced Video Coding\r\nDuration                                 : 1h 27mn\r\nBit rate                                 : 1 205 Kbps\r\nWidth                                    : 720 pixels\r\nHeight                                   : 404 pixels\r\nDisplay aspect ratio                     : 16:9\r\nFrame rate mode                          : Constant\r\nFrame rate                               : 29.970 fps\r\nColor space                              : YUV\r\nChroma subsampling                       : 4:2:0\r\nBit depth                                : 8 bits\r\nScan type                                : Progressive\r\nBits/(Pixel*Frame)                       : 0.138\r\nStream size                              : 754 MiB (89%)\r\n\r\nAudio\r\nID                                       : 2\r\nFormat                                   : AAC\r\nFormat/Info                              : Advanced Audio Codec\r\nFormat profile                           : LC\r\nCodec ID                                 : 40\r\nDuration                                 : 1h 27mn\r\nBit rate mode                            : Constant\r\nBit rate                                 : 137 Kbps\r\nChannel(s)                               : 2 channels\r\nChannel positions                        : Front: L R\r\nSampling rate                            : 44.1 KHz\r\nCompression mode                         : Lossy\r\nStream size                              : 85.7 MiB (10%)","torrent":{"xt":"urn:btih:d9d9055190fdebdfc91d9900651b94a1893f8dec","amp;dn":"13+Frightened+Girls%281963%29MPEG-4%5BDaScubaDude%5D","amp;tr":["udp%3A%2F%2Ftracker.leechers-paradise.org%3A6969","udp%3A%2F%2Fzer0day.ch%3A1337","udp%3A%2F%2Fopen.demonii.com%3A1337","udp%3A%2F%2Ftracker.coppersurfer.tk%3A6969","udp%3A%2F%2Fexodus.desync.com%3A6969"],"infoHash":"d9d9055190fdebdfc91d9900651b94a1893f8dec","infoHashBuffer":{"type":"Buffer","data":[217,217,5,81,144,253,235,223,201,29,153,0,101,27,148,161,137,63,141,236]},"announce":[],"urlList":[]}}